+ filenameToUse=/home/horvathandras/vatic/vatic/public/videouploads/DJI_0044_regi_turas_gazos_gabona_kotcse_20180710_napos_kalaszos_T4.avi
+ filenameNoDot=DJI_0044_regi_turas_gazos_gabona_kotcse_20180710_napos_kalaszos_T4
+ FullUploadPath=/home/horvathandras/vatic/vatic/public/videouploads/DJI_0044_regi_turas_gazos_gabona_kotcse_20180710_napos_kalaszos_T4.avi
+ VideoDataDir=/home/horvathandras/vatic/vatic/videos
+ AvailableObjectTypes='PozitívROI NegatívROI Túrás ~Friss ~1-2Hetes ~Régebbi ~Egyéb1 ~Egyéb2 ~Egyéb3 Rágás ~Friss ~1-2Hetes ~Régebbi ~Egyéb1 ~Egyéb2 ~Egyéb3 Törés ~Friss ~1-2Hetes ~Régebbi ~Egyéb1 ~Egyéb2 ~Egyéb3 Taposás ~Friss ~1-2Hetes ~Régebbi ~Egyéb1 ~Egyéb2 ~Egyéb3 EgészségesNövény Egyéb1 Egyéb2 Egyéb3 Egyéb4 Egyéb5 Bizonytalan Művelőút Gktaposás Vetőhiba Széldöntés Jégkár Belvíz Aszály Erózió EgyszikűGyom KétszikűGyom EgyébNövvédelmiPR'
++ dirname /home/horvathandras/vatic/vatic/vatic_publisher.sh
+ cd /home/horvathandras/vatic/vatic
+ touch /home/horvathandras/vatic/vatic/public/videouploads/DJI_0044_regi_turas_gazos_gabona_kotcse_20180710_napos_kalaszos_T4.avi
+ chmod 744 /home/horvathandras/vatic/vatic/public/videouploads/DJI_0044_regi_turas_gazos_gabona_kotcse_20180710_napos_kalaszos_T4.avi
+ mkdir /home/horvathandras/vatic/vatic/videos/DJI_0044_regi_turas_gazos_gabona_kotcse_20180710_napos_kalaszos_T4
+ turkic extract /home/horvathandras/vatic/vatic/public/videouploads/DJI_0044_regi_turas_gazos_gabona_kotcse_20180710_napos_kalaszos_T4.avi /home/horvathandras/vatic/vatic/videos/DJI_0044_regi_turas_gazos_gabona_kotcse_20180710_napos_kalaszos_T4 --no-resize
ffmpeg version 2.8.14-0ubuntu0.16.04.1 Copyright (c) 2000-2018 the FFmpeg developers
  built with gcc 5.4.0 (Ubuntu 5.4.0-6ubuntu1~16.04.9) 20160609
  configuration: --prefix=/usr --extra-version=0ubuntu0.16.04.1 --build-suffix=-ffmpeg --toolchain=hardened --libdir=/usr/lib/x86_64-linux-gnu --incdir=/usr/include/x86_64-linux-gnu --cc=cc --cxx=g++ --enable-gpl --enable-shared --disable-stripping --disable-decoder=libopenjpeg --disable-decoder=libschroedinger --enable-avresample --enable-avisynth --enable-gnutls --enable-ladspa --enable-libass --enable-libbluray --enable-libbs2b --enable-libcaca --enable-libcdio --enable-libflite --enable-libfontconfig --enable-libfreetype --enable-libfribidi --enable-libgme --enable-libgsm --enable-libmodplug --enable-libmp3lame --enable-libopenjpeg --enable-libopus --enable-libpulse --enable-librtmp --enable-libschroedinger --enable-libshine --enable-libsnappy --enable-libsoxr --enable-libspeex --enable-libssh --enable-libtheora --enable-libtwolame --enable-libvorbis --enable-libvpx --enable-libwavpack --enable-libwebp --enable-libx265 --enable-libxvid --enable-libzvbi --enable-openal --enable-opengl --enable-x11grab --enable-libdc1394 --enable-libiec61883 --enable-libzmq --enable-frei0r --enable-libx264 --enable-libopencv
  libavutil      54. 31.100 / 54. 31.100
  libavcodec     56. 60.100 / 56. 60.100
  libavformat    56. 40.101 / 56. 40.101
  libavdevice    56.  4.100 / 56.  4.100
  libavfilter     5. 40.101 /  5. 40.101
  libavresample   2.  1.  0 /  2.  1.  0
  libswscale      3.  1.101 /  3.  1.101
  libswresample   1.  2.101 /  1.  2.101
  libpostproc    53.  3.100 / 53.  3.100
Input #0, mov,mp4,m4a,3gp,3g2,mj2, from '/home/horvathandras/vatic/vatic/public/videouploads/DJI_0044_regi_turas_gazos_gabona_kotcse_20180710_napos_kalaszos_T4.avi':
  Metadata:
    major_brand     : qt  
    minor_version   : 537986816
    compatible_brands: qt  
    creation_time   : 2018-07-10 11:09:09
    location        : +46.722404+17.867098+30.000
    location-{    : +46.722404+17.867098+30.000
    comment         : DE=None, Mode=P, DSW=0001
  Duration: 00:00:10.20, start: 0.000000, bitrate: 101296 kb/s
    Stream #0:0(eng): Video: h264 (High) (avc1 / 0x31637661), yuv420p(tv, bt709), 4096x2160 [SAR 1:1 DAR 256:135], 100977 kb/s, 50 fps, 50 tbr, 50k tbn, 100 tbc (default)
    Metadata:
      creation_time   : 2018-07-10 11:09:09
      handler_name    : DJI.AVC
      encoder         : AVC encoder
    Stream #0:1(eng): Data: none (priv / 0x76697270), 290 kb/s
    Metadata:
      creation_time   : 2018-07-10 11:09:09
      handler_name    : DJI.Meta
Please use -b:a or -b:v, -b is ambiguous
[swscaler @ 0x883be0] deprecated pixel format used, make sure you did set range correctly
Output #0, image2, to '/tmp/pyvision-ffmpeg-556617769/%d.jpg':
  Metadata:
    major_brand     : qt  
    minor_version   : 537986816
    compatible_brands: qt  
    comment         : DE=None, Mode=P, DSW=0001
    location        : +46.722404+17.867098+30.000
    location-{    : +46.722404+17.867098+30.000
    encoder         : Lavf56.40.101
    Stream #0:0(eng): Video: mjpeg, yuvj420p(pc), 4096x2160 [SAR 1:1 DAR 256:135], q=2-31, 10000 kb/s, 50 fps, 50 tbn, 50 tbc (default)
    Metadata:
      creation_time   : 2018-07-10 11:09:09
      handler_name    : DJI.AVC
      encoder         : Lavc56.60.100 mjpeg
Stream mapping:
  Stream #0:0 -> #0:0 (h264 (native) -> mjpeg (native))
Press [q] to stop, [?] for help
frame=    1 fps=0.0 q=14.5 size=N/A time=00:00:00.02 bitrate=N/A    frame=    5 fps=4.7 q=24.0 size=N/A time=00:00:00.10 bitrate=N/A    frame=   10 fps=6.2 q=24.8 size=N/A time=00:00:00.20 bitrate=N/A    frame=   15 fps=6.9 q=24.8 size=N/A time=00:00:00.30 bitrate=N/A    frame=   20 fps=7.4 q=24.8 size=N/A time=00:00:00.40 bitrate=N/A    frame=   25 fps=7.7 q=24.8 size=N/A time=00:00:00.50 bitrate=N/A    frame=   30 fps=7.9 q=24.8 size=N/A time=00:00:00.60 bitrate=N/A    frame=   35 fps=8.1 q=24.8 size=N/A time=00:00:00.70 bitrate=N/A    frame=   40 fps=8.2 q=24.8 size=N/A time=00:00:00.80 bitrate=N/A    frame=   45 fps=8.3 q=24.8 size=N/A time=00:00:00.90 bitrate=N/A    frame=   50 fps=8.4 q=24.8 size=N/A time=00:00:01.00 bitrate=N/A    frame=   55 fps=8.5 q=24.8 size=N/A time=00:00:01.10 bitrate=N/A    frame=   60 fps=8.5 q=24.8 size=N/A time=00:00:01.20 bitrate=N/A    frame=   65 fps=8.6 q=24.8 size=N/A time=00:00:01.30 bitrate=N/A    frame=   70 fps=8.6 q=24.8 size=N/A time=00:00:01.40 bitrate=N/A    frame=   75 fps=8.7 q=24.8 size=N/A time=00:00:01.50 bitrate=N/A    frame=   80 fps=8.7 q=24.8 size=N/A time=00:00:01.60 bitrate=N/A    frame=   85 fps=8.7 q=24.8 size=N/A time=00:00:01.70 bitrate=N/A    frame=   90 fps=8.7 q=24.8 size=N/A time=00:00:01.80 bitrate=N/A    frame=   95 fps=8.8 q=24.8 size=N/A time=00:00:01.90 bitrate=N/A    frame=  100 fps=8.8 q=24.8 size=N/A time=00:00:02.00 bitrate=N/A    frame=  105 fps=8.8 q=24.8 size=N/A time=00:00:02.10 bitrate=N/A    frame=  110 fps=8.8 q=24.8 size=N/A time=00:00:02.20 bitrate=N/A    frame=  115 fps=8.8 q=24.8 size=N/A time=00:00:02.30 bitrate=N/A    frame=  120 fps=8.9 q=24.8 size=N/A time=00:00:02.40 bitrate=N/A    frame=  125 fps=8.9 q=24.8 size=N/A time=00:00:02.50 bitrate=N/A    frame=  130 fps=8.9 q=24.8 size=N/A time=00:00:02.60 bitrate=N/A    frame=  135 fps=8.9 q=24.8 size=N/A time=00:00:02.70 bitrate=N/A    frame=  140 fps=8.9 q=24.8 size=N/A time=00:00:02.80 bitrate=N/A    frame=  145 fps=8.9 q=24.8 size=N/A time=00:00:02.90 bitrate=N/A    frame=  150 fps=8.9 q=24.8 size=N/A time=00:00:03.00 bitrate=N/A    frame=  155 fps=8.9 q=24.8 size=N/A time=00:00:03.10 bitrate=N/A    frame=  160 fps=8.9 q=24.8 size=N/A time=00:00:03.20 bitrate=N/A    frame=  165 fps=8.9 q=24.8 size=N/A time=00:00:03.30 bitrate=N/A    frame=  170 fps=9.0 q=24.8 size=N/A time=00:00:03.40 bitrate=N/A    frame=  175 fps=9.0 q=24.8 size=N/A time=00:00:03.50 bitrate=N/A    frame=  180 fps=9.0 q=24.8 size=N/A time=00:00:03.60 bitrate=N/A    frame=  185 fps=9.0 q=24.8 size=N/A time=00:00:03.70 bitrate=N/A    frame=  190 fps=9.0 q=24.8 size=N/A time=00:00:03.80 bitrate=N/A    frame=  195 fps=9.0 q=24.8 size=N/A time=00:00:03.90 bitrate=N/A    frame=  200 fps=9.0 q=24.8 size=N/A time=00:00:04.00 bitrate=N/A    frame=  205 fps=9.0 q=24.8 size=N/A time=00:00:04.10 bitrate=N/A    frame=  210 fps=9.0 q=24.8 size=N/A time=00:00:04.20 bitrate=N/A    frame=  215 fps=9.0 q=24.8 size=N/A time=00:00:04.30 bitrate=N/A    frame=  220 fps=9.0 q=24.8 size=N/A time=00:00:04.40 bitrate=N/A    frame=  225 fps=9.0 q=24.8 size=N/A time=00:00:04.50 bitrate=N/A    frame=  230 fps=9.0 q=24.8 size=N/A time=00:00:04.60 bitrate=N/A    frame=  235 fps=9.0 q=24.8 size=N/A time=00:00:04.70 bitrate=N/A    frame=  240 fps=9.0 q=24.8 size=N/A time=00:00:04.80 bitrate=N/A    frame=  245 fps=9.0 q=24.8 size=N/A time=00:00:04.90 bitrate=N/A    frame=  250 fps=9.0 q=24.8 size=N/A time=00:00:05.00 bitrate=N/A    frame=  255 fps=9.0 q=24.8 size=N/A time=00:00:05.10 bitrate=N/A    frame=  260 fps=9.1 q=24.8 size=N/A time=00:00:05.20 bitrate=N/A    frame=  265 fps=9.1 q=24.8 size=N/A time=00:00:05.30 bitrate=N/A    frame=  270 fps=9.1 q=24.8 size=N/A time=00:00:05.40 bitrate=N/A    frame=  275 fps=9.1 q=24.8 size=N/A time=00:00:05.50 bitrate=N/A    frame=  280 fps=9.1 q=24.8 size=N/A time=00:00:05.60 bitrate=N/A    frame=  285 fps=9.1 q=24.8 size=N/A time=00:00:05.70 bitrate=N/A    frame=  290 fps=9.1 q=24.8 size=N/A time=00:00:05.80 bitrate=N/A    frame=  295 fps=9.1 q=24.8 size=N/A time=00:00:05.90 bitrate=N/A    frame=  300 fps=9.1 q=24.8 size=N/A time=00:00:06.00 bitrate=N/A    frame=  305 fps=9.1 q=24.8 size=N/A time=00:00:06.10 bitrate=N/A    frame=  310 fps=9.1 q=24.8 size=N/A time=00:00:06.20 bitrate=N/A    frame=  315 fps=9.1 q=24.8 size=N/A time=00:00:06.30 bitrate=N/A    frame=  320 fps=9.1 q=24.8 size=N/A time=00:00:06.40 bitrate=N/A    frame=  325 fps=9.1 q=24.8 size=N/A time=00:00:06.50 bitrate=N/A    frame=  330 fps=9.1 q=24.8 size=N/A time=00:00:06.60 bitrate=N/A    frame=  335 fps=9.1 q=24.8 size=N/A time=00:00:06.70 bitrate=N/A    frame=  340 fps=9.1 q=24.8 size=N/A time=00:00:06.80 bitrate=N/A    frame=  345 fps=9.1 q=24.8 size=N/A time=00:00:06.90 bitrate=N/A    frame=  350 fps=9.1 q=24.8 size=N/A time=00:00:07.00 bitrate=N/A    frame=  355 fps=9.1 q=24.8 size=N/A time=00:00:07.10 bitrate=N/A    frame=  360 fps=9.1 q=24.8 size=N/A time=00:00:07.20 bitrate=N/A    frame=  365 fps=9.1 q=24.8 size=N/A time=00:00:07.30 bitrate=N/A    frame=  370 fps=9.1 q=24.8 size=N/A time=00:00:07.40 bitrate=N/A    frame=  375 fps=9.1 q=24.8 size=N/A time=00:00:07.50 bitrate=N/A    frame=  380 fps=9.1 q=24.8 size=N/A time=00:00:07.60 bitrate=N/A    frame=  385 fps=9.1 q=24.8 size=N/A time=00:00:07.70 bitrate=N/A    frame=  390 fps=9.1 q=24.8 size=N/A time=00:00:07.80 bitrate=N/A    frame=  395 fps=9.1 q=24.8 size=N/A time=00:00:07.90 bitrate=N/A    frame=  400 fps=9.1 q=24.8 size=N/A time=00:00:08.00 bitrate=N/A    frame=  405 fps=9.1 q=24.8 size=N/A time=00:00:08.10 bitrate=N/A    frame=  410 fps=9.1 q=24.8 size=N/A time=00:00:08.20 bitrate=N/A    frame=  415 fps=9.1 q=24.8 size=N/A time=00:00:08.30 bitrate=N/A    frame=  420 fps=9.1 q=24.8 size=N/A time=00:00:08.40 bitrate=N/A    frame=  425 fps=9.1 q=24.8 size=N/A time=00:00:08.50 bitrate=N/A    frame=  430 fps=9.1 q=24.8 size=N/A time=00:00:08.60 bitrate=N/A    frame=  435 fps=9.1 q=24.8 size=N/A time=00:00:08.70 bitrate=N/A    frame=  440 fps=9.1 q=24.8 size=N/A time=00:00:08.80 bitrate=N/A    frame=  445 fps=9.1 q=24.8 size=N/A time=00:00:08.90 bitrate=N/A    frame=  450 fps=9.1 q=24.8 size=N/A time=00:00:09.00 bitrate=N/A    frame=  455 fps=9.1 q=24.8 size=N/A time=00:00:09.10 bitrate=N/A    frame=  460 fps=9.1 q=24.8 size=N/A time=00:00:09.20 bitrate=N/A    frame=  465 fps=9.1 q=24.8 size=N/A time=00:00:09.30 bitrate=N/A    frame=  470 fps=9.1 q=24.8 size=N/A time=00:00:09.40 bitrate=N/A    frame=  475 fps=9.1 q=24.8 size=N/A time=00:00:09.50 bitrate=N/A    frame=  480 fps=9.1 q=24.8 size=N/A time=00:00:09.60 bitrate=N/A    frame=  485 fps=9.1 q=24.8 size=N/A time=00:00:09.70 bitrate=N/A    frame=  490 fps=9.1 q=24.8 size=N/A time=00:00:09.80 bitrate=N/A    frame=  495 fps=9.1 q=24.8 size=N/A time=00:00:09.90 bitrate=N/A    frame=  500 fps=9.1 q=24.8 size=N/A time=00:00:10.00 bitrate=N/A    frame=  505 fps=9.1 q=24.8 size=N/A time=00:00:10.10 bitrate=N/A    frame=  510 fps=9.1 q=24.8 size=N/A time=00:00:10.20 bitrate=N/A    frame=  510 fps=9.1 q=24.8 Lsize=N/A time=00:00:10.20 bitrate=N/A    
video:332528kB audio:0kB subtitle:0kB other streams:0kB global headers:0kB muxing overhead: unknown
+ turkic load DJI_0044_regi_turas_gazos_gabona_kotcse_20180710_napos_kalaszos_T4 /home/horvathandras/vatic/vatic/videos/DJI_0044_regi_turas_gazos_gabona_kotcse_20180710_napos_kalaszos_T4 $'Pozit\303\255vROI' $'Negat\303\255vROI' $'T\303\272r\303\241s' '~Friss' '~1-2Hetes' '~Régebbi' '~Egyéb1' '~Egyéb2' '~Egyéb3' $'R\303\241g\303\241s' '~Friss' '~1-2Hetes' '~Régebbi' '~Egyéb1' '~Egyéb2' '~Egyéb3' $'T\303\266r\303\251s' '~Friss' '~1-2Hetes' '~Régebbi' '~Egyéb1' '~Egyéb2' '~Egyéb3' $'Tapos\303\241s' '~Friss' '~1-2Hetes' '~Régebbi' '~Egyéb1' '~Egyéb2' '~Egyéb3' $'Eg\303\251szs\303\251gesN\303\266v\303\251ny' $'Egy\303\251b1' $'Egy\303\251b2' $'Egy\303\251b3' $'Egy\303\251b4' $'Egy\303\251b5' Bizonytalan $'M\305\261vel\305\221\303\272t' $'Gktapos\303\241s' $'Vet\305\221hiba' $'Sz\303\251ld\303\266nt\303\251s' $'J\303\251gk\303\241r' $'Belv\303\255z' $'Asz\303\241ly' $'Er\303\263zi\303\263' $'Egyszik\305\261Gyom' $'K\303\251tszik\305\261Gyom' $'Egy\303\251bN\303\266vv\303\251delmiPR' --offline --title '$filenameNoDot Video' --length 1000 --description 'vatic annotation'
+ turkic publish --offline
+ mkdir /home/horvathandras/vatic/vatic/public/videothumbnails/DJI_0044_regi_turas_gazos_gabona_kotcse_20180710_napos_kalaszos_T4
+ cp /home/horvathandras/vatic/vatic/videos/DJI_0044_regi_turas_gazos_gabona_kotcse_20180710_napos_kalaszos_T4/0/0/31.jpg /home/horvathandras/vatic/vatic/public/videothumbnails/DJI_0044_regi_turas_gazos_gabona_kotcse_20180710_napos_kalaszos_T4/thumb.jpg
